<mxfile host="app.diagrams.net" agent="Mozilla/5.0 (Macintosh; Intel Mac OS X 10_15_7) AppleWebKit/537.36 (KHTML, like Gecko) Chrome/131.0.0.0 Safari/537.36" version="25.0.3">
  <diagram name="Страница — 1" id="U8bnnMa1BhE_CLv8g7Nz">
    <mxGraphModel dx="1031" dy="873" grid="1" gridSize="10" guides="1" tooltips="1" connect="1" arrows="1" fold="1" page="1" pageScale="1" pageWidth="1654" pageHeight="1169" math="0" shadow="0">
      <root>
        <mxCell id="0" />
        <mxCell id="1" parent="0" />
        <mxCell id="i5eVVXYDvoq45LOAVe_l-10" style="edgeStyle=orthogonalEdgeStyle;rounded=0;orthogonalLoop=1;jettySize=auto;html=1;entryX=1;entryY=0.5;entryDx=0;entryDy=0;exitX=0.25;exitY=0;exitDx=0;exitDy=0;" edge="1" parent="1" source="i5eVVXYDvoq45LOAVe_l-1" target="i5eVVXYDvoq45LOAVe_l-9">
          <mxGeometry relative="1" as="geometry">
            <mxPoint x="320" y="50" as="targetPoint" />
            <Array as="points">
              <mxPoint x="295" y="50" />
            </Array>
          </mxGeometry>
        </mxCell>
        <mxCell id="i5eVVXYDvoq45LOAVe_l-1" value="App1&lt;br&gt;&lt;br&gt;SPA with modules" style="rounded=0;whiteSpace=wrap;html=1;" vertex="1" parent="1">
          <mxGeometry x="260" y="380" width="140" height="80" as="geometry" />
        </mxCell>
        <mxCell id="i5eVVXYDvoq45LOAVe_l-2" value="App2&lt;br&gt;&lt;br&gt;SPA with modules" style="rounded=0;whiteSpace=wrap;html=1;" vertex="1" parent="1">
          <mxGeometry x="450" y="380" width="140" height="80" as="geometry" />
        </mxCell>
        <mxCell id="i5eVVXYDvoq45LOAVe_l-12" style="edgeStyle=orthogonalEdgeStyle;rounded=0;orthogonalLoop=1;jettySize=auto;html=1;entryX=1;entryY=0.5;entryDx=0;entryDy=0;" edge="1" parent="1" source="i5eVVXYDvoq45LOAVe_l-3" target="i5eVVXYDvoq45LOAVe_l-9">
          <mxGeometry relative="1" as="geometry">
            <mxPoint x="650" y="60" as="targetPoint" />
            <Array as="points">
              <mxPoint x="670" y="50" />
            </Array>
          </mxGeometry>
        </mxCell>
        <mxCell id="i5eVVXYDvoq45LOAVe_l-3" value="App3&lt;br&gt;&lt;br&gt;SPA with modules" style="rounded=0;whiteSpace=wrap;html=1;" vertex="1" parent="1">
          <mxGeometry x="640" y="380" width="140" height="80" as="geometry" />
        </mxCell>
        <mxCell id="i5eVVXYDvoq45LOAVe_l-6" style="edgeStyle=orthogonalEdgeStyle;rounded=0;orthogonalLoop=1;jettySize=auto;html=1;entryX=0;entryY=0;entryDx=0;entryDy=0;" edge="1" parent="1" source="i5eVVXYDvoq45LOAVe_l-4" target="i5eVVXYDvoq45LOAVe_l-1">
          <mxGeometry relative="1" as="geometry" />
        </mxCell>
        <mxCell id="i5eVVXYDvoq45LOAVe_l-7" style="edgeStyle=orthogonalEdgeStyle;rounded=0;orthogonalLoop=1;jettySize=auto;html=1;entryX=0;entryY=0;entryDx=0;entryDy=0;" edge="1" parent="1" source="i5eVVXYDvoq45LOAVe_l-4" target="i5eVVXYDvoq45LOAVe_l-2">
          <mxGeometry relative="1" as="geometry" />
        </mxCell>
        <mxCell id="i5eVVXYDvoq45LOAVe_l-8" style="edgeStyle=orthogonalEdgeStyle;rounded=0;orthogonalLoop=1;jettySize=auto;html=1;entryX=0;entryY=0;entryDx=0;entryDy=0;" edge="1" parent="1" source="i5eVVXYDvoq45LOAVe_l-4" target="i5eVVXYDvoq45LOAVe_l-3">
          <mxGeometry relative="1" as="geometry" />
        </mxCell>
        <mxCell id="i5eVVXYDvoq45LOAVe_l-15" style="edgeStyle=orthogonalEdgeStyle;rounded=0;orthogonalLoop=1;jettySize=auto;html=1;entryX=0.5;entryY=1;entryDx=0;entryDy=0;" edge="1" parent="1" source="i5eVVXYDvoq45LOAVe_l-4" target="i5eVVXYDvoq45LOAVe_l-9">
          <mxGeometry relative="1" as="geometry" />
        </mxCell>
        <mxCell id="i5eVVXYDvoq45LOAVe_l-4" value="CommonUI&lt;br&gt;&lt;br&gt;&lt;div&gt;Menu with app&lt;br&gt;Menu with feature&lt;br&gt;UI Config&lt;/div&gt;" style="rounded=1;whiteSpace=wrap;html=1;" vertex="1" parent="1">
          <mxGeometry x="60" y="160" width="120" height="100" as="geometry" />
        </mxCell>
        <mxCell id="i5eVVXYDvoq45LOAVe_l-9" value="App Service" style="rounded=0;whiteSpace=wrap;html=1;" vertex="1" parent="1">
          <mxGeometry x="50" y="20" width="140" height="60" as="geometry" />
        </mxCell>
        <mxCell id="i5eVVXYDvoq45LOAVe_l-11" style="edgeStyle=orthogonalEdgeStyle;rounded=0;orthogonalLoop=1;jettySize=auto;html=1;entryX=1;entryY=0.5;entryDx=0;entryDy=0;" edge="1" parent="1" source="i5eVVXYDvoq45LOAVe_l-2" target="i5eVVXYDvoq45LOAVe_l-9">
          <mxGeometry relative="1" as="geometry">
            <Array as="points">
              <mxPoint x="480" y="50" />
            </Array>
          </mxGeometry>
        </mxCell>
      </root>
    </mxGraphModel>
  </diagram>
</mxfile>
